<svg width="52" height="52" viewBox="0 0 52 52" fill="none" xmlns="http://www.w3.org/2000/svg">
<g clip-path="url(#clip0_2010_2091)">
<path d="M24.0283 0H28.1055C28.5086 0.178654 29.2642 0.138805 29.73 0.229677C31.0816 0.493398 32.4231 0.715564 33.7407 1.12686C41.0534 3.43394 46.9899 8.82629 49.9872 15.8842C51.0941 18.4598 51.6379 21.0359 51.9812 23.7815C51.9873 23.8005 51.9939 23.8195 52 23.8385V28.2176C51.8009 28.7427 51.8243 29.6492 51.6928 30.2301C51.4551 31.2807 51.2784 32.4383 50.9651 33.4649C48.86 40.4508 43.9294 46.2379 37.3665 49.4258C34.8579 50.6416 32.4393 51.2723 29.732 51.802C29.3399 51.8786 28.7621 51.8299 28.4092 52H23.5869C23.2319 51.8634 21.7594 51.6608 21.2552 51.5648C18.9034 51.1189 16.6977 50.4424 14.5314 49.3581C7.97068 46.1401 3.06177 40.3164 1.00073 33.3056C0.655012 32.1638 0.464917 30.8484 0.213382 29.6795C0.10666 29.1836 0.182242 28.609 0 28.1153V23.8868C0.113621 23.6372 0.283464 21.9532 0.363743 21.5026C0.924569 18.3547 1.82578 15.9628 3.36217 13.1501C6.65148 7.25309 12.1355 2.89289 18.6221 1.01734C19.7847 0.691219 21.0758 0.475109 22.2665 0.220893C22.7703 0.113342 23.4084 0.184811 24.0076 0.00629627L24.0283 0Z" fill="#E2E2E2"/>
<path d="M25.07 1.87592C38.3929 1.36249 49.6102 11.7454 50.1261 25.0682C50.6419 38.3911 40.2611 49.6103 26.9384 50.1286C13.6121 50.6471 2.38941 40.2629 1.8734 26.9366C1.3574 13.6103 11.7436 2.38947 25.07 1.87592Z" fill="#FEFEFE"/>
<path d="M24.9815 5.60081C36.2527 5.03826 45.844 13.7235 46.3992 24.9951C46.9543 36.2667 38.2628 45.8524 26.9908 46.4C15.7292 46.9473 6.15452 38.2656 5.59988 27.0044C5.0453 15.7432 13.7207 6.1628 24.9815 5.60081Z" fill="#F55035"/>
<path fill-rule="evenodd" clip-rule="evenodd" d="M39.9324 27.4681C39.838 28.0916 39.5991 28.6848 39.2346 29.2009C38.8701 29.7171 38.3903 30.1419 37.8324 30.4419C37.6779 30.5271 37.516 30.5986 37.349 30.6555C37.5613 33.4538 33.0901 34.4714 30.6807 33.8049L31.5759 36.9186L29.2738 37L25.2452 31.2635C23.887 31.6451 22.2832 31.8283 21.2473 30.1747C21.1532 30.0229 21.0678 29.8657 20.9915 29.7041C20.728 29.7576 20.4599 29.7848 20.1909 29.7855C19.4236 29.7855 18.1446 29.5566 17.495 29.1089C16.9799 28.7692 16.5713 28.2923 16.3158 27.7326C14.932 27.9209 13.7579 27.5978 12.9906 26.799C12.0186 25.8043 11.7424 24.161 12.2488 22.3981C12.9164 20.045 14.9473 17.3942 18.9836 16.3996C19.3338 15.9667 19.7528 15.5937 20.2242 15.2955C22.759 13.6802 26.8746 13.5403 29.9977 15.0742C31.2085 14.8499 32.4584 14.9689 33.6043 15.4176C35.8501 16.2546 37.482 18.0048 37.7889 19.783C38.3969 20.0963 38.8947 20.586 39.2162 21.1872C39.8889 22.4439 39.9835 23.7031 39.5308 24.7206C39.9572 25.5701 40.0981 26.5332 39.9324 27.4681ZM38.2749 26.1452C37.9173 26.333 37.5193 26.4312 37.1149 26.4312C36.7105 26.4312 36.3125 26.333 35.9549 26.1452L36.1417 24.9114C36.9295 24.9878 37.5715 24.7435 37.9066 24.2424C38.2826 23.6853 38.2237 22.8585 37.748 21.9707C37.216 20.976 36.0675 20.8183 35.4306 20.8107H35.3897C33.7936 20.8107 32.1668 21.7138 31.5094 22.8916L30.5528 22.4362C30.7408 21.8295 31.0604 21.2711 31.4889 20.8005C31.12 20.489 30.8411 20.0854 30.6811 19.6311C30.521 19.1768 30.4856 18.6883 30.5783 18.2159L31.5222 18.1294C31.5654 18.5115 31.7243 18.8715 31.9778 19.1618C32.2313 19.4521 32.5676 19.6589 32.9418 19.755C33.7291 19.4055 34.5839 19.2318 35.4459 19.2462C35.5687 19.2462 35.6864 19.2589 35.8066 19.2665C35.195 18.1882 34.2258 17.3547 33.0646 16.9084C30.2305 15.8145 28.3198 17.5113 27.8824 18.0964C26.8285 19.5006 27.5038 20.8285 28.0179 21.6909L27.1738 22.454C26.4387 21.8216 25.9454 20.9564 25.7773 20.0043C24.6953 20.3274 23.2424 20.2587 22.429 18.8773L23.1964 18.3533C24.0584 18.9944 25.4268 18.9384 26.0765 18.1472C26.2313 17.7974 26.4271 17.467 26.6597 17.1628C27.0291 16.6776 27.4748 16.255 27.9796 15.9112C25.8591 15.3362 22.8639 15.4304 21.0529 16.5853C20.5636 16.8679 20.1607 17.2777 19.8877 17.7706C19.6146 18.2636 19.4816 18.8212 19.5029 19.3836C19.5029 20.2917 20.2191 21.7265 21.1834 21.9504L20.6232 23.0315C20.0079 22.8898 19.4494 22.5682 19.0194 22.1081L18.1881 23.1612L17.3568 22.7593L18.1702 20.6428C18.0373 20.2317 17.9692 19.8026 17.9682 19.3708C17.9702 19.029 18.0062 18.6881 18.0756 18.3533C15.5177 19.4039 14.2542 21.1516 13.7912 22.7491C13.4356 23.9778 13.5738 25.087 14.157 25.6822C14.6199 26.1554 15.3285 26.2673 15.9961 26.2241L17.7865 24.8377L18.3749 25.3312L17.8428 27.0661C18.1216 27.9488 19.0348 28.4042 20.6999 28.0837C20.7863 27.3813 21.065 26.7161 21.5057 26.1605C21.8288 25.698 22.2563 25.3174 22.7539 25.0488L23.6287 22.7059L24.5035 22.6677L24.4088 24.5884C25.8796 24.4383 27.5243 24.7359 29.0564 24.507L29.3378 25.5245C27.092 26.5573 24.7925 24.8733 22.7078 27.0941C21.9584 27.8929 22.2449 28.5874 22.7078 29.2869C23.3754 30.2867 24.6288 29.6863 25.9103 29.2869C27.8517 28.6967 29.2611 28.2694 31.9187 28.4856C31.2843 27.2874 31.3457 25.84 32.1949 24.2475L33.4457 24.7385C32.5683 26.7507 33.3894 27.9158 33.9573 28.4296C34.8346 29.2233 36.1544 29.4625 37.0267 28.9842C37.3607 28.8008 37.648 28.5434 37.8662 28.232C38.0843 27.9206 38.2276 27.5634 38.2851 27.1882C38.3427 26.8425 38.3383 26.4894 38.2723 26.1452H38.2749Z" fill="#FED6C0"/>
</g>
<defs>
<clipPath id="clip0_2010_2091">
<rect width="52" height="52" fill="white"/>
</clipPath>
</defs>
</svg>
