<svg width="52" height="52" viewBox="0 0 52 52" fill="none" xmlns="http://www.w3.org/2000/svg">
<g clip-path="url(#clip0_2011_2107)">
<path d="M24.0283 0H28.1055C28.5086 0.178654 29.2642 0.138805 29.73 0.229677C31.0816 0.493398 32.4231 0.715564 33.7407 1.12686C41.0534 3.43394 46.9899 8.82629 49.9872 15.8842C51.0941 18.4598 51.6379 21.0359 51.9812 23.7815C51.9873 23.8005 51.9939 23.8195 52 23.8385V28.2176C51.8009 28.7427 51.8243 29.6492 51.6928 30.2301C51.4551 31.2807 51.2784 32.4383 50.9651 33.4649C48.86 40.4508 43.9294 46.2379 37.3665 49.4258C34.8579 50.6416 32.4393 51.2723 29.732 51.802C29.3399 51.8786 28.7621 51.8299 28.4092 52H23.5869C23.2319 51.8634 21.7594 51.6608 21.2552 51.5648C18.9034 51.1189 16.6977 50.4424 14.5314 49.3581C7.97068 46.1401 3.06177 40.3164 1.00073 33.3056C0.655012 32.1638 0.464917 30.8484 0.213382 29.6795C0.10666 29.1836 0.182242 28.609 0 28.1153V23.8868C0.113621 23.6372 0.283464 21.9532 0.363743 21.5026C0.924569 18.3547 1.82578 15.9628 3.36217 13.1501C6.65148 7.25309 12.1355 2.89289 18.6221 1.01734C19.7847 0.691219 21.0758 0.475109 22.2665 0.220893C22.7703 0.113342 23.4084 0.184811 24.0076 0.00629627L24.0283 0Z" fill="#E2E2E2"/>
<path d="M25.07 1.87592C38.3929 1.36249 49.6102 11.7454 50.1261 25.0682C50.6419 38.3911 40.2611 49.6103 26.9384 50.1286C13.6121 50.6471 2.38941 40.2629 1.8734 26.9366C1.3574 13.6103 11.7436 2.38947 25.07 1.87592Z" fill="#FEFEFE"/>
<path d="M24.9815 5.60081C36.2527 5.03826 45.844 13.7235 46.3992 24.9951C46.9543 36.2667 38.2628 45.8524 26.9908 46.4C15.7292 46.9473 6.15452 38.2656 5.59988 27.0044C5.0453 15.7432 13.7207 6.1628 24.9815 5.60081Z" fill="#F55035"/>
<path d="M29.6257 9.0067C29.8016 8.99564 30.1055 8.98461 30.2455 9.09387C30.6345 9.39751 31.0036 9.91175 31.3502 10.2689C31.971 10.9089 32.5884 11.5279 33.169 12.2003C33.2778 12.3262 33.3447 12.5303 33.3921 12.6882C33.2434 13.1916 32.5809 13.7797 32.1973 14.1772C32.7966 14.2077 33.1315 14.4895 33.4673 14.9558C33.7196 15.3061 33.2462 15.6638 32.9651 15.7709C32.247 16.05 31.1286 16.4577 30.3685 16.3654C29.317 16.2378 29.0785 16.1395 28.0773 16.5639C27.4796 16.8174 26.1063 16.7063 25.4697 16.4688L24.5708 16.9003C23.2606 18.9519 22.5773 21.4934 23.6945 23.785C24.2661 24.9575 24.0625 26.7438 23.5861 27.9184C23.8655 27.6963 24.2825 27.1132 24.5732 26.829C25.4958 25.9268 26.4449 25.3779 27.7327 25.2071C28.5504 25.0987 28.8744 25.0685 29.6974 25.2859C30.0839 25.388 30.8469 25.7969 31.1393 25.7659C31.9523 25.6795 32.7079 24.1636 33.1635 23.5604C33.401 23.2235 33.6429 22.8971 33.9308 22.598C34.6506 21.8502 35.7956 21.1958 36.847 21.1465C37.5712 21.1125 38.2374 21.5903 38.7327 22.0742C37.8278 22.1588 35.9444 22.8877 35.172 23.374C34.4109 23.8466 33.8454 24.5774 33.5787 25.4327C33.4822 25.7446 33.4059 26.1684 33.3313 26.4962C34.0165 27.8833 35.0235 28.1088 35.7248 29.3468C35.346 29.1885 34.992 29.0687 34.6202 28.8703C33.0048 28.0085 31.4242 26.8939 29.6291 26.4376C29.3364 26.3632 28.7478 26.3585 28.445 26.3695C27.0015 26.4221 25.1663 27.3216 24.1926 28.3589C23.9859 28.5791 23.8735 28.7848 23.8924 29.0947C23.9272 29.668 24.5615 30.4541 24.973 30.8143C24.3576 30.5951 23.529 30.6118 23.005 31.016C22.4148 31.4712 22.1676 31.7074 21.4321 31.9166C20.9128 32.0615 20.3803 32.1546 19.8426 32.1944C19.4647 32.2249 19.0558 32.2344 18.6853 32.2974C19.661 31.406 21.1082 29.6194 21.667 28.4302C22.0995 27.5099 22.2294 25.6193 22.0849 24.6271C21.9238 23.5218 21.6183 22.3834 21.7916 21.2396C21.9143 20.4233 22.3213 19.6584 22.5578 18.8641C22.8735 17.8038 23.2498 16.6449 23.4396 15.5575C23.7015 15.8422 24.1176 16.1304 24.4916 16.2499C25.3864 16.0163 26.0868 15.2954 26.4723 14.4903C26.686 14.044 26.8199 13.8788 27.2405 13.6122C27.1192 13.156 26.8245 12.6187 26.6665 12.1355C26.9134 12.3989 27.0533 12.7493 27.2453 13.0562C27.3627 13.2438 27.4819 13.408 27.6123 13.5862C27.6952 13.3903 28.0402 12.3627 28.1207 12.2928L28.1741 12.307C28.2952 12.664 27.804 13.5677 27.7903 13.9514C27.7875 14.0326 28.1744 14.2349 28.2627 14.4568L28.2319 14.4769C28.0818 14.4345 27.8537 14.2767 27.7131 14.1876C27.6897 14.4021 27.6768 14.5648 27.6825 14.7806C27.6853 14.8907 27.6792 14.9074 27.6175 14.9621L27.5647 14.9505C27.4029 14.7358 27.7058 14.0938 27.4893 13.8464C27.2476 13.7727 26.9395 14.1354 26.7924 14.2998C26.5711 14.5472 27.3176 15.1408 27.5101 15.2379C28.2029 15.5875 28.6827 14.8991 29.1921 14.7161L29.2049 14.7117C29.303 14.4883 29.5563 14.239 29.6065 14.0618C29.8322 13.2152 29.2755 12.4157 29.0075 11.6489C28.9557 11.5005 28.7348 11.0798 28.8263 10.9594L28.8857 10.975C29.1058 11.1371 29.5121 12.199 29.6257 12.5157C29.9083 13.3041 29.9643 13.9634 29.6032 14.7285C29.9423 14.5233 30.7936 14.2763 30.8885 14.0341C31.2073 13.22 30.3491 11.5441 30.0916 10.7656L30.1342 10.7482C30.5746 11.0057 31.3177 13.3602 31.3178 13.9069C30.7862 14.5631 30.2414 14.6764 29.7364 15.1041C29.7158 15.1272 29.6935 15.1618 29.6752 15.1879L29.6975 15.2131C30.127 15.1787 30.4462 15.1644 30.8335 14.9381C31.2335 14.7029 31.9743 14.229 32.0757 13.7363C32.3683 12.3141 30.8911 11.1755 30.3162 10.1446C30.6966 10.3682 31.2823 11.1234 31.61 11.4882C32.1855 12.1292 32.493 12.7513 32.4289 13.6214C32.8021 13.09 33.09 12.6025 32.6031 12.0172C31.8515 11.1138 31.0129 10.2083 30.1029 9.46283C30.0011 9.37942 29.7086 9.33003 29.5722 9.30806C29.8066 9.62169 29.8897 9.84536 30.0426 10.2033C29.7578 9.97451 29.3325 9.42828 28.9357 9.52491C28.7696 9.56535 28.6834 9.74586 28.6041 9.88491C28.6975 10.0819 28.7419 10.2246 28.8088 10.4329C28.6149 10.3089 28.3794 10.1864 28.1751 10.0743C27.7196 10.13 27.0774 10.3577 26.6418 10.534C25.9203 10.7983 25.3211 11.214 24.6783 11.5946C23.2079 12.4651 22.2982 13.414 21.3505 14.824C20.2259 16.4972 19.3068 18.2404 18.424 20.0564C17.7851 21.3252 17.0226 22.4965 16.5917 23.8589C16.0801 25.477 16.0903 27.0742 15.843 28.7184C15.6188 30.2084 14.948 31.946 14.3442 33.3498C14.6371 33.9548 15.0457 34.6368 15.5418 35.0987C16.2014 35.7128 17.2793 35.5049 18.1004 35.4863C18.3497 35.4803 18.6194 35.4605 18.8721 35.4486C20.36 35.3795 21.826 35.5278 23.2648 35.9156C23.7023 36.0333 24.1286 36.1922 24.5581 36.3363C25.8421 36.7022 27.3554 37.2513 28.7052 37.1872C29.0818 37.1692 29.4767 37.0805 29.836 37.0239C31.728 36.7271 33.4367 36.0499 34.9698 34.8947C35.6226 34.4027 35.9169 34.2072 36.4751 33.5713C36.1307 34.3112 35.4626 35.5524 34.8429 36.057C35.2225 36.6589 35.3476 37.5816 36.0659 36.6011C36.0079 37.5027 35.4847 38.3293 34.9197 39C34.2652 38.278 34.0843 37.8031 33.7757 36.9008C33.4194 37.0265 33.0819 37.216 32.7338 37.3595C31.8568 37.758 30.9843 37.9305 30.0708 38.1615C28.1101 38.6575 26.5957 38.4719 24.6307 38.1517L21.4046 37.6044L18.2861 37.0731C17.8534 36.996 17.4095 36.9423 16.9826 36.838C16.5596 36.7348 16.1235 36.5925 15.7319 36.4012C15.0645 36.0754 14.0267 35.0658 13.7892 34.3567C13.6157 33.8388 13.8858 32.6439 13.9477 32.0629C14.1185 30.4591 14.2053 28.794 14.5319 27.2146C14.9268 25.3053 15.8262 23.3183 16.7057 21.5826C17.8343 19.3551 19.2784 17.3182 20.5876 15.1975C20.9834 14.5565 21.631 13.1731 22.1065 12.7287C22.8892 11.9973 25.6742 10.5224 26.7112 10.1471C27.1696 9.9811 27.6654 9.96019 28.1226 9.77376C28.6418 9.56203 29.09 9.18234 29.6257 9.0067Z" fill="#FED6C0"/>
</g>
<defs>
<clipPath id="clip0_2011_2107">
<rect width="52" height="52" fill="white"/>
</clipPath>
</defs>
</svg>
