<svg width="52" height="52" viewBox="0 0 52 52" fill="none" xmlns="http://www.w3.org/2000/svg">
<g clip-path="url(#clip0_2009_2076)">
<path d="M24.0283 0H28.1055C28.5086 0.178654 29.2642 0.138805 29.73 0.229677C31.0816 0.493398 32.4231 0.715564 33.7407 1.12686C41.0534 3.43394 46.9899 8.82629 49.9872 15.8842C51.0941 18.4598 51.6379 21.0359 51.9812 23.7815C51.9873 23.8005 51.9939 23.8195 52 23.8385V28.2176C51.8009 28.7427 51.8243 29.6492 51.6928 30.2301C51.4551 31.2807 51.2784 32.4383 50.9651 33.4649C48.86 40.4508 43.9294 46.2379 37.3665 49.4258C34.8579 50.6416 32.4393 51.2723 29.732 51.802C29.3399 51.8786 28.7621 51.8299 28.4092 52H23.5869C23.2319 51.8634 21.7594 51.6608 21.2552 51.5648C18.9034 51.1189 16.6977 50.4424 14.5314 49.3581C7.97068 46.1401 3.06177 40.3164 1.00073 33.3056C0.655012 32.1638 0.464917 30.8484 0.213382 29.6795C0.10666 29.1836 0.182242 28.609 0 28.1153V23.8868C0.113621 23.6372 0.283464 21.9532 0.363743 21.5026C0.924569 18.3547 1.82578 15.9628 3.36217 13.1501C6.65148 7.25309 12.1355 2.89289 18.6221 1.01734C19.7847 0.691219 21.0758 0.475109 22.2665 0.220893C22.7703 0.113342 23.4084 0.184811 24.0076 0.00629627L24.0283 0Z" fill="#E2E2E2"/>
<path d="M25.07 1.87592C38.3929 1.36249 49.6102 11.7454 50.1261 25.0682C50.6419 38.3911 40.2611 49.6103 26.9384 50.1286C13.6121 50.6471 2.38941 40.2629 1.8734 26.9366C1.3574 13.6103 11.7436 2.38947 25.07 1.87592Z" fill="#FEFEFE"/>
<path d="M24.9815 5.60081C36.2527 5.03826 45.844 13.7235 46.3992 24.9951C46.9543 36.2667 38.2628 45.8524 26.9908 46.4C15.7292 46.9473 6.15452 38.2656 5.59988 27.0044C5.0453 15.7432 13.7207 6.1628 24.9815 5.60081Z" fill="#F55035"/>
<path d="M24.9247 17.386C26.3545 17.1953 28.124 17.7659 29.3041 18.5932C28.0073 19.6753 27.3234 21.0197 27.3513 22.7232C27.362 24.0236 27.8961 25.2649 28.8331 26.1666C29.799 27.0954 31.0935 27.6038 32.4333 27.5806C33.7227 27.5506 34.9481 27.0125 35.8428 26.0834C36.8403 28.432 36.7598 30.7543 34.9313 32.7105C33.6142 34.1196 31.9567 34.6106 30.0654 34.6555C26.8663 34.7402 23.5969 34.6085 20.3892 34.6605C18.5386 34.6905 16.9271 34.0004 16.0324 32.312C15.4754 31.2558 15.3635 30.0209 15.7217 28.8819C16.1222 27.6087 16.9111 26.7079 18.1424 26.1672C18.3337 26.0832 18.5184 25.9966 18.7033 25.8993C18.7431 25.8111 18.6562 25.2689 18.6351 25.1388C17.9526 20.9143 20.8534 17.9112 24.9247 17.386Z" fill="#FED6C0"/>
<path d="M31.7697 19.2586C33.6292 18.9601 35.3777 20.2284 35.6712 22.0888C35.9646 23.9491 34.6915 25.6942 32.8303 25.9825C30.9764 26.2697 29.2396 25.0026 28.9473 23.1494C28.655 21.2963 29.9174 19.556 31.7697 19.2586Z" fill="#FED6C0"/>
</g>
<defs>
<clipPath id="clip0_2009_2076">
<rect width="52" height="52" fill="white"/>
</clipPath>
</defs>
</svg>
